<svg width="674" height="720" viewBox="0 0 674 720" fill="none" xmlns="http://www.w3.org/2000/svg">
<g style="mix-blend-mode:overlay">
<g style="mix-blend-mode:overlay">
<path d="M8.06382 588.152C-0.881296 645.277 13.372 743.554 141.946 679.663C302.664 599.8 760.119 440.653 658.307 747.391" stroke="white" stroke-width="0.697114"/>
</g>
<g style="mix-blend-mode:overlay">
<path d="M520.315 -274.075C628.683 174.507 -162.899 -84.9768 41.1779 -17.7021C592.343 163.991 370.525 576.567 608.894 784.936" stroke="white" stroke-width="0.697114"/>
</g>
<g style="mix-blend-mode:overlay">
<path d="M12.9869 563.653C7.10764 633.596 -3.94149 718.878 126.819 659.353C299.626 588.629 734.139 446.665 643.468 750.839" stroke="white" stroke-width="0.697114"/>
</g>
<g style="mix-blend-mode:overlay">
<path d="M18.243 538.754C15.4779 621.504 -20.9224 693.886 112.04 638.718C296.973 577.087 708.61 452.394 629.07 753.962" stroke="white" stroke-width="0.697114"/>
</g>
<g style="mix-blend-mode:overlay">
<path d="M23.7823 513.503C24.1796 609.048 -37.6205 668.627 97.5621 617.807C294.654 565.223 683.482 457.885 615.062 756.807" stroke="white" stroke-width="0.697114"/>
</g>
<g style="mix-blend-mode:overlay">
<path d="M29.5632 487.938C33.1709 596.266 -54.0771 643.138 83.342 596.657C292.629 553.074 658.713 463.178 601.404 759.412" stroke="white" stroke-width="0.697114"/>
</g>
<g style="mix-blend-mode:overlay">
<path d="M35.551 462.09C42.4173 583.19 -70.3267 617.45 69.3457 575.3C290.862 540.673 634.27 468.302 588.061 761.808" stroke="white" stroke-width="0.697114"/>
</g>
<g style="mix-blend-mode:overlay">
<path d="M41.7171 435.987C51.8901 569.847 -86.3975 591.592 55.545 553.764C289.324 528.046 610.125 473.286 575.005 764.023" stroke="white" stroke-width="0.697114"/>
</g>
<g style="mix-blend-mode:overlay">
<path d="M48.0367 409.652C61.5645 556.26 -102.314 565.585 41.9152 532.071C287.992 515.215 586.252 478.152 562.211 766.079" stroke="white" stroke-width="0.697114"/>
</g>
<g style="mix-blend-mode:overlay">
<path d="M54.4888 383.103C71.4194 542.447 -118.098 539.45 28.4355 510.241C286.844 502.201 562.631 482.918 549.659 767.995" stroke="white" stroke-width="0.697114"/>
</g>
<g style="mix-blend-mode:overlay">
<path d="M61.0552 356.359C81.4367 528.426 -133.765 513.203 15.0879 488.29C285.863 489.019 539.245 487.602 537.33 769.788" stroke="white" stroke-width="0.697114"/>
</g>
<g style="mix-blend-mode:overlay">
<path d="M67.7204 329.434C91.6005 514.211 -149.333 486.859 1.85706 466.233C285.032 475.685 516.077 492.217 525.208 771.472" stroke="white" stroke-width="0.697114"/>
</g>
<g style="mix-blend-mode:overlay">
<path d="M74.47 302.339C101.897 499.815 -164.815 460.431 -11.271 444.083C284.337 462.211 493.115 496.776 513.281 773.059" stroke="white" stroke-width="0.697114"/>
</g>
<g style="mix-blend-mode:overlay">
<path d="M82.6764 276.406C113.698 486.567 -178.838 435.248 -22.9239 423.17C285.152 449.927 471.73 502.61 502.921 775.88" stroke="white" stroke-width="0.697114"/>
</g>
<g style="mix-blend-mode:overlay">
<path d="M97.6291 256.665C132.293 479.499 -186.113 416.342 -27.8119 408.524C292.764 443.863 457.213 514.747 499.416 784.964" stroke="white" stroke-width="0.697114"/>
</g>
<g style="mix-blend-mode:overlay">
<path d="M112.748 236.835C151.102 472.328 -193.22 397.43 -32.5151 393.863C300.595 437.738 442.983 526.906 496.188 794.029" stroke="white" stroke-width="0.697114"/>
</g>
<g style="mix-blend-mode:overlay">
<path d="M128.004 216.903C170.096 465.042 -200.187 378.501 -37.0616 379.177C308.616 431.54 429.013 539.075 493.207 803.064" stroke="white" stroke-width="0.697114"/>
</g>
<g style="mix-blend-mode:overlay">
<path d="M143.376 196.863C189.254 457.636 -207.035 359.549 -41.4729 364.457C316.805 425.262 415.281 551.247 490.453 812.062" stroke="white" stroke-width="0.697114"/>
</g>
<g style="mix-blend-mode:overlay">
<path d="M158.847 176.712C208.558 450.104 -213.78 340.57 -45.7653 349.702C325.146 418.9 401.77 563.419 487.909 821.019" stroke="white" stroke-width="0.697114"/>
</g>
<g style="mix-blend-mode:overlay">
<path d="M174.404 156.448C227.997 442.446 -220.437 321.561 -49.9523 334.908C333.625 412.452 388.468 575.588 485.561 829.932" stroke="white" stroke-width="0.697114"/>
</g>
<g style="mix-blend-mode:overlay">
<path d="M190.036 136.07C247.557 434.66 -227.015 302.523 -54.0448 320.075C342.232 405.918 375.364 587.752 483.399 838.801" stroke="white" stroke-width="0.697114"/>
</g>
<g style="mix-blend-mode:overlay">
<path d="M210.245 110.699C271.743 421.868 -229.012 278.576 -53.5392 300.324C355.469 394.419 366.961 595.034 485.926 842.747" stroke="white" stroke-width="0.697114"/>
</g>
<g style="mix-blend-mode:overlay">
<path d="M238.722 76.2688C304.244 400.002 -222.738 245.654 -44.7457 271.589C377.026 373.887 366.949 593.365 496.833 837.702" stroke="white" stroke-width="0.697114"/>
</g>
<g style="mix-blend-mode:overlay">
<path d="M267.147 41.7328C336.74 378.017 -216.511 212.711 -35.9839 242.823C398.584 353.277 367.009 591.699 507.799 832.62" stroke="white" stroke-width="0.697114"/>
</g>
<g style="mix-blend-mode:overlay">
<path d="M295.518 7.08948C369.23 355.91 -210.334 179.744 -27.2556 214.024C420.141 332.586 367.139 590.035 518.822 827.499" stroke="white" stroke-width="0.697114"/>
</g>
<g style="mix-blend-mode:overlay">
<path d="M323.831 -27.663C401.71 333.679 -204.21 146.753 -18.5634 185.19C441.693 311.813 367.336 588.37 529.9 822.337" stroke="white" stroke-width="0.697114"/>
</g>
<g style="mix-blend-mode:overlay">
<path d="M352.086 -62.526C434.178 311.324 -198.139 113.735 -9.90825 156.321C463.241 290.956 367.6 586.702 541.033 817.132" stroke="white" stroke-width="0.697114"/>
</g>
<g style="mix-blend-mode:overlay">
<path d="M380.281 -97.5004C466.634 288.842 -192.124 80.6897 -1.292 127.415C484.781 270.014 367.93 585.03 552.217 811.883" stroke="white" stroke-width="0.697114"/>
</g>
<g style="mix-blend-mode:overlay">
<path d="M408.415 -132.587C499.076 266.234 -186.164 47.6166 7.28443 98.4713C506.313 248.986 368.323 583.353 563.453 806.589" stroke="white" stroke-width="0.697114"/>
</g>
<g style="mix-blend-mode:overlay">
<path d="M436.485 -167.787C531.502 243.497 -180.262 14.5144 15.8197 69.4889C527.836 227.87 368.779 581.669 574.739 801.249" stroke="white" stroke-width="0.697114"/>
</g>
<g style="mix-blend-mode:overlay">
<path d="M464.492 -203.1C563.912 220.632 -174.417 -18.6171 24.3134 40.4672C549.348 206.668 369.298 579.979 586.074 795.861" stroke="white" stroke-width="0.697114"/>
</g>
<g style="mix-blend-mode:overlay">
<path d="M492.434 -238.527C596.304 197.638 -168.632 -51.7784 32.7644 11.406C570.849 185.377 369.878 578.281 597.457 790.426" stroke="white" stroke-width="0.697114"/>
</g>
</g>
</svg>
